<?xml version="1.0" encoding="UTF-8"?><svg xmlns="http://www.w3.org/2000/svg" viewBox="0 0 316 141"><defs><style>.d{fill:#313781;}.e{fill:#2a337e;}.f{fill:#fcfbfc;}.g{fill:#2b337e;}.h{fill:#2b347e;}</style></defs><g id="a"/><g id="b"><g id="c"><g><path class="e" d="M316,141H0V0H316V141ZM123.59,50.04c.92-15.7-6.5-26.04-18.9-27.11-14.62-1.27-25.33,6.94-27.28,20.9-1.63,11.7,7.45,24.06,19.11,26.02,12.35,2.08,23.74-5.17,26.17-16.83h-10.51c-2.85,5.8-7.47,8.38-13.87,7.07-5.23-1.07-8.24-4.5-9.72-10.04h34.99Zm-52.15-10.19c-3.05-12.47-14.84-19.51-27.61-16.64-11.76,2.65-19.94,15.48-17.59,27.58,2.53,12.98,14.5,21.17,27.87,19.07,12.47-1.96,19.62-12.76,17.58-26.78h-22.32v8.93h11.57c-1.88,6.29-5.72,8.83-12.07,8.38-6.29-.45-11.11-5.03-11.98-11.39-.99-7.26,2.41-13.76,8.33-15.92,6.2-2.26,11.29-.09,15.79,6.78h10.41Zm80.22-17.09c-14.31-.43-23.46,12.14-23.53,23.39-.07,13.11,10.23,23.88,23.03,23.98,12.84,.1,23.43-10.36,23.51-23.48,.08-13.94-11.3-24.3-23.01-23.89Zm27.7,46.12h10.59v-18.03h18.66v-9.98h-18.39v-8.01h20.67v-9.45c-10.69,0-21.08-.05-31.53,.03v45.45Zm53.83-45.21v9.39h13.12v35.81h10.67V32.86h13.02v-9.19h-36.81Zm-14.48,.08v45.14h10.07V23.75h-10.07ZM123.98,99.23c-1.53,8.04-7.84,12.2-14.72,10.4-5.33-1.4-9.01-5.69-9.39-10.97-.45-6.17,2.44-10.99,7.84-13.06,5.31-2.04,10.68-.65,14.27,3.98,1.35,1.74,2.51,3.07,4.84,1.87-2.55-7.94-10.63-11.99-19.1-9.57-8.55,2.44-13.53,10.95-11.35,19.41,2.24,8.69,10.81,13.58,20.32,11.57,7.55-1.59,12.28-9.04,10.67-17.09-3.26,0-6.57,0-9.88,0-.83,0-1.66-.02-2.5,0-1.15,.03-2.47-.11-2.54,1.59-.09,2.08,1.49,1.83,2.78,1.85,2.81,.03,5.62,.01,8.77,.01Zm28.73,.78c1.16-.47,2.14-.84,3.09-1.25,3.88-1.68,5.49-4.39,5.21-8.71-.26-4.02-2.51-7.11-6.46-7.83-5.36-.97-10.78-.42-16.14-.37v30.9h3.53v-12.35c4.53-1.52,7.3-.13,9.33,3.66,1.32,2.47,3.32,4.58,4.81,6.97,1.27,2.03,2.8,2.38,5.17,1.47-1.45-2.11-2.75-4.01-4.05-5.92-1.4-2.06-2.8-4.11-4.48-6.58Zm32.32,13.12c7.27,.79,16.09-5.01,16.5-15.58,.33-8.61-7.22-16.22-16-16.42-8.7-.2-16.21,7.11-16.46,15.92-.22,8.05,6.79,16.68,15.96,16.08Zm26.09-31.14c0,1.57,0,2.56,0,3.55,0,5.16-.13,10.33,.03,15.49,.23,7.26,4.59,11.82,11.28,12.09,8.56,.34,12.93-2.86,13.72-10.87,.58-5.94,.36-11.96,.49-17.94,.06-2.82-1.5-2.78-3.41-2.25-.2,.56-.4,.86-.4,1.16-.04,4,0,7.99-.09,11.99-.06,2.65-.07,5.34-.56,7.93-.86,4.58-3.88,6.86-8.45,6.82-4.43-.04-7.74-2.59-8.5-6.92-.4-2.27-.31-4.64-.33-6.97-.04-4.63-.01-9.26-.01-14.07h-3.77Zm37.16-.17v31.28l3.87-.62v-12.31c3.73,0,7.04,.2,10.32-.04,5.32-.39,8.37-3.59,8.53-8.52,.19-5.83-2.91-9.41-8.86-9.75-4.47-.25-8.95-.05-13.87-.05Z"/><path class="f" d="M142.17,84.89v11.15c3.42,0,6.55,.17,9.67-.05,3.46-.24,5.05-1.87,5.27-4.8,.24-3.26-1.12-5.21-4.78-5.77-3.23-.49-6.56-.37-10.16-.53Z"/><path class="d" d="M89.62,40.64c2.22-5.98,7.4-9.13,13.33-8.36,5.33,.7,8.31,3.43,8.95,8.36h-22.28Z"/><path class="g" d="M151.42,31.61c7.56,0,13.48,6.67,13.37,15.05-.1,8.16-5.95,14.48-13.39,14.48-7.6,0-13.53-6.64-13.39-15.01,.13-8.21,5.97-14.53,13.41-14.52Z"/><path class="h" d="M142.17,84.89c3.6,.16,6.92,.04,10.16,.53,3.66,.56,5.03,2.51,4.78,5.77-.22,2.92-1.82,4.56-5.27,4.8-3.11,.22-6.25,.05-9.67,.05v-11.15Z"/><path class="g" d="M172.9,97.55c-.12-6.94,5.13-12.52,11.91-12.67,7.18-.16,12.7,5.06,12.94,12.22,.22,6.74-5.71,12.84-12.49,12.86-6.64,.02-12.24-5.61-12.35-12.4Z"/><path class="g" d="M252.06,96.98v-11.88c3.29,0,6.43-.25,9.51,.06,3.94,.4,5.71,2.65,5.55,6.29-.14,3.32-2,5.22-5.84,5.49-2.95,.21-5.93,.04-9.23,.04Z"/></g></g></g></svg>