<?xml version="1.0" encoding="UTF-8"?><svg xmlns="http://www.w3.org/2000/svg" viewBox="0 0 513.17 144.12"><defs><style>.d{fill:#3ca8e0;}.e{fill:#2b327f;}.f{fill:#03a683;}.g{fill:#03a885;}.h{fill:#03a884;}.i{fill:#03a583;}</style></defs><g id="a"/><g id="b"><g id="c"><g><path class="g" d="M513.17,128.9c-2.45,4.85-6.79,6.19-11.76,6.15-2.49-.02-5.03-.14-7.44-.67-3.18-.7-5.42-2.74-6.34-5.99-.38-1.33-.12-1.72,1.21-1.74,2.23-.04,4.46,0,6.68-.02,.8,0,1.22,.17,1.58,1.09,.73,1.85,3.82,2.54,5.43,1.41,1.15-.8,1.11-2.57-.17-3.22-.89-.45-1.92-.63-2.9-.89-2.23-.61-4.52-1.04-6.68-1.82-3.41-1.24-4.77-3.24-4.74-6.41,.03-3.34,1.65-5.67,4.74-6.83,4.58-1.72,9.26-1.7,13.91-.28,2.41,.74,4.2,2.3,5.07,4.77,.58,1.65,.4,1.98-1.3,2.03-1.48,.04-2.97,0-4.46,.01-1.29,0-2.41,.06-3.27-1.42-.79-1.37-2.95-1.49-4.27-.69-1.12,.68-1.21,2-.11,2.72,.52,.34,1.19,.48,1.81,.64,2.15,.56,4.3,1.09,6.45,1.64,3.11,.79,5.51,2.41,6.56,5.61v3.91Z"/><path class="g" d="M389.93,112.54c6.55-5.02,11.04-4.92,15.71,.46,.43-.4,.85-.82,1.29-1.22,3.34-3.05,7.23-3.68,11.41-2.31,3.1,1.02,4.91,3.31,5.05,6.64,.13,2.88,.07,5.76,.07,8.64,0,2.7-.02,5.39,0,8.09,0,1.03-.35,1.54-1.46,1.52-2.14-.05-4.28-.05-6.41,0-1.17,.03-1.68-.41-1.66-1.62,.05-2.88,.03-5.76,0-8.65,0-1.3-.04-2.6-.13-3.9-.18-2.58-1.14-3.6-3.27-3.58-2.19,.01-3.35,1.26-3.4,3.83-.06,3.07-.01,6.14-.01,9.2,0,1.12-.02,2.23,0,3.35,.02,.9-.28,1.38-1.27,1.37-2.32-.03-4.65-.04-6.97,0-1.14,.02-1.41-.57-1.41-1.56,.02-3.44,.04-6.88-.01-10.32-.02-1.2-.14-2.42-.41-3.58-.36-1.56-1.19-2.16-2.75-2.28-1.65-.13-2.79,.42-3.34,1.9-.35,.93-.51,1.98-.53,2.98-.06,3.72,0,7.44-.04,11.16-.01,1.63-.07,1.67-1.76,1.7-2.04,.04-4.09-.03-6.13,.02-1.14,.03-1.69-.28-1.68-1.55,.04-7.25,.04-14.5,0-21.75,0-1.2,.43-1.65,1.62-1.6,1.86,.07,3.72,.08,5.57,0,1.27-.06,1.97,.28,1.8,1.69-.05,.43,.05,.88,.08,1.39Z"/><path class="e" d="M247.1,112.34c1.56-1.04,2.9-2.23,4.46-2.9,3.09-1.34,5.98-.66,8.5,1.56,1.32,1.16,1.29,1.1,2.98,.1,1.26-.75,2.56-1.53,3.95-1.96,5.38-1.64,10.02,1.76,10.09,7.37,.07,5.11,.04,10.23-.02,15.35,0,.65-.29,1.71-.69,1.84-.82,.27-1.85,.19-2.69-.08-.32-.1-.47-1.12-.48-1.73-.04-4.37,.02-8.74-.05-13.11-.02-1.18-.21-2.4-.55-3.54-.69-2.3-2.83-3.47-5.15-2.97-3.5,.75-5.32,3.14-5.41,7.32-.07,3.53-.02,7.07-.02,10.6,0,.65,.09,1.32-.03,1.95-.11,.57-.35,1.49-.7,1.57-.86,.2-1.86,.18-2.7-.1-.32-.1-.47-1.13-.47-1.73-.04-4.28-.02-8.56-.02-12.83,0-.74,.1-1.51-.03-2.23-.29-1.62-.43-3.32-2.33-4.11-2.08-.86-4.03-.67-5.77,.64-1.62,1.22-2.56,2.81-2.51,5.01,.1,4.46,.06,8.93,.01,13.39-.02,1.77-.46,2.13-2.16,2.14-1.81,.01-2.24-.36-2.25-2.34-.03-6.79-.03-13.58,0-20.37,0-1.68,.17-1.78,1.71-1.84,1.78-.07,1.96,.07,2.17,1.66,.06,.43,.09,.87,.14,1.33Z"/><path class="e" d="M359.88,112.17c1.7-1.02,3.18-2.16,4.84-2.84,3.17-1.3,6.25-.51,9,1.27,.91,.59,1.56,1.85,1.93,2.93,.47,1.38,.72,2.89,.75,4.35,.09,4.55,.06,9.11,.02,13.66-.02,1.99-.43,2.36-2.23,2.36-1.7,0-2.15-.37-2.18-2.12-.05-3.72-.02-7.44-.02-11.16,0-1.3,.03-2.6-.02-3.9-.14-3.21-2.52-5.13-5.67-4.45-4.71,1.01-6.05,2.24-6.54,7.86-.29,3.32-.05,6.69-.05,10.04,0,.65,.02,1.3,0,1.95-.08,1.55-2.12,2.54-3.39,1.57-.35-.27-.48-.98-.49-1.49-.05-2.23-.03-4.46-.03-6.69,0-4.74,0-9.48,.01-14.22,0-.7-.23-1.67,.8-1.81,.88-.12,2.07-.23,2.64,.24,.55,.46,.47,1.67,.65,2.45Z"/><path class="e" d="M310.56,113.02c1.1-2.14,2.79-3.43,5.07-3.96,1.8-.42,2.14-.21,2.21,1.61,.08,2.27,.06,2.3-2.07,2.6-3.33,.47-4.66,1.72-5.19,5.1-.29,1.81-.46,3.66-.52,5.49-.09,2.69,0,5.38-.03,8.07-.03,1.77-.2,1.93-1.57,1.97-1.71,.05-2.27-.35-2.3-1.98-.06-3.52-.02-7.05-.02-10.57,0-3.43-.03-6.86,.02-10.29,.02-1.55,.23-1.67,1.84-1.69,1.68-.02,1.89,.12,2.02,1.52,.06,.63,0,1.27,0,1.91l.54,.23Z"/><path class="e" d="M346.86,121.36c0-3.35-.01-6.69,.01-10.04,0-.69-.24-1.68,.77-1.83,.88-.13,1.87-.09,2.69,.21,.32,.11,.42,1.14,.42,1.75,.03,4.37,.02,8.74,.02,13.11,0,2.23,.01,4.46,0,6.69-.02,2.54-.13,2.67-2.02,2.66-1.82-.02-1.88-.08-1.89-2.79-.01-3.25,0-6.51,0-9.76Z"/><path class="e" d="M350.77,102.91c-.05,1.84-.25,2.03-2.14,1.98-1.69-.05-1.86-.31-1.77-2.62,.07-1.68,.26-1.86,2-1.85,1.8,.01,1.97,.24,1.91,2.49Z"/><path class="g" d="M467.84,132.24c0,3.57,.02,6.72,0,9.87-.02,1.95-.05,1.98-2.05,2.01-2.04,.03-4.09-.02-6.13,0-.95,.01-1.36-.4-1.32-1.33,.02-.46,0-.93,0-1.39,0-9.76,0-19.52,0-29.27,0-.28-.01-.56,0-.84,.08-1.7,.1-1.74,1.71-1.79,1.39-.04,2.79-.01,4.18,0q2.5,.01,2.82,2.63c.34-.16,.66-.25,.9-.45,6.27-5.17,14.34-2.97,16.98,4.7,1.41,4.1,1.24,8.21-.33,12.25-2.49,6.39-10.88,8.81-16.76,3.63Zm7.91-12.89c-.42-1.93-1.85-3.15-3.7-3.21-1.92-.06-3.7,1.22-3.96,3.23-.22,1.73-.2,3.54,.05,5.26,.27,1.88,1.98,3.07,3.8,3.06,1.83-.02,3.37-1.23,3.79-3.1,.2-.9,.24-1.84,.35-2.68-.11-.9-.15-1.74-.33-2.56Z"/><path class="h" d="M455.22,134.35c-3.41,0-6.26-.02-9.11,0-1.45,.02-1.03-1.6-2.02-2.14-2.91,2.35-6.33,3.13-10.09,2.86-5.52-.41-8.7-5.26-6.91-10.5,.79-2.3,2.52-3.48,4.62-3.99,3.14-.75,6.37-1.15,9.55-1.73,.72-.13,1.5-.23,2.1-.58,1.26-.74,1.2-2.4-.03-3.19-1.6-1.03-4.36-.72-5.53,.85-.65,.87-1.31,1.15-2.31,1.13-2.13-.05-4.27,.02-6.4-.03-1.26-.03-1.44-.32-1.16-1.55,.53-2.31,1.82-4.12,4.01-5.01,1.78-.73,3.68-1.4,5.57-1.58,3.22-.3,6.49-.38,9.68,.48,4.44,1.19,6.68,3.27,6.69,8.21,0,3.71,0,7.43,0,11.14,0,1.81-.28,3.67,1.33,5.63Zm-14.92-9.93c-.53,.15-1.07,.28-1.59,.48-1.68,.64-2.18,1.32-1.97,2.57,.19,1.14,1.17,1.84,2.72,1.92,3.4,.18,5.14-2.06,4.53-6.03-1.24,.36-2.46,.71-3.69,1.06Z"/><path class="e" d="M337.71,111.85c.08-.38,.22-.7,.21-1.01-.03-1.06,.47-1.45,1.52-1.5,2.11-.09,2.39,.09,2.4,2.28,.02,7.34,.06,14.68,0,22.02-.07,6.73-2.81,9.11-8.08,10.13-3.06,.59-6.09,.2-9-.84-2.7-.96-4.14-2.96-4.44-5.81,2.8-.69,2.67-.57,4.36,1.33,.86,.97,2.24,1.87,3.48,2.01,1.97,.23,4.08,.05,6.02-.42,2.76-.67,3.59-1.92,3.76-4.78,.07-1.2,.01-2.4,.01-3.89-.5,.26-.83,.34-1.03,.54-2.81,2.83-6.18,2.92-9.8,2.2-3.48-.69-7.44-5.55-7.57-9.72-.06-1.86-.21-3.74,.02-5.57,1.05-8.38,7.93-11.86,14.85-9.22,1.16,.44,2.12,1.42,3.32,2.25Zm.54,10.2c-.38-1.97-.5-4.04-1.19-5.9-.95-2.57-3.16-3.9-5.84-3.95-2.78-.06-5.24,.73-6.6,3.61-1.69,3.58-1.68,7.24-.3,10.76,1.2,3.08,3.99,5.03,7.76,4.49,3.16-.45,5.87-3.38,5.85-6.73,0-.74,0-1.48,0-2.22l.32-.06Z"/><path class="e" d="M293.92,122.76c-2.32,0-4.65-.03-6.97,0-2.07,.03-2.07,.07-1.62,2.02,.04,.18,.08,.36,.12,.54,.91,3.81,2.23,5.1,6.19,5.69,2.97,.44,4.86-1.32,6.47-3.5,.36-.48,.72-1.25,1.16-1.31,.86-.13,1.79,.14,2.68,.25-.17,.77-.2,1.61-.53,2.31-3,6.37-11.78,7.82-16.87,2.91-2.44-2.36-3.52-5.21-3.52-8.46,0-2.3,.05-4.68,.62-6.87,1.21-4.62,4.77-7.53,9.72-7.57,2.19-.02,4.23,.28,6.16,1.34,4.12,2.27,5.57,7.95,5.21,11.53-.1,1.03-.8,1.11-1.59,1.11-2.42,0-4.83,0-7.25,0h0Zm-1.83-10.61c-3.83-.16-7.14,2.97-6.84,7.11h13.16c-.32-4.8-2.3-6.94-6.31-7.11Z"/></g><g><path class="e" d="M99.42,44.6c.49,3.73,2.22,6.62,4.3,9.32,6.8,8.82,18.97,10.35,27.43,3.47,2.31-1.88,3.91-4.29,5-7.04,.33-.83,.62-1.4,1.69-1.39,5.31,.05,10.63,.02,16.18,.02-.1,.78-.11,1.41-.28,2-4.01,14.1-16.06,24.45-30.6,26.02-20.99,2.27-36.96-12.37-40.57-29.61-3.42-16.36,1.5-30.11,14.84-40.36,14.05-10.81,35.94-8.49,46.94,2.4,5.65,5.59,8.84,12.42,9.98,20.17,.6,4.09,.7,8.26,.89,12.4,.12,2.59,.01,2.6-2.51,2.6-14.56,0-29.11,0-43.67,0h-9.63Zm.78-15.09h2.95c9.97,0,19.94,0,29.91,0,.91,0,1.83-.04,2.74,0,1.31,.06,1.83-.28,1.37-1.73-1.72-5.41-5.02-9.26-10.48-11.15-3.3-1.14-6.69-1.23-10.08-.94-7.1,.6-14.41,6.64-16.41,13.81Z"/><path class="e" d="M39.59,.08h1.49c11.1,1.51,20.2,6.36,26.44,15.9,2.37,3.62,4.2,7.51,5.05,11.96-.67,.07-1.22,.18-1.77,.18-4.66,.01-9.31-.01-13.97,.02-1.08,0-1.79-.16-2.27-1.35-2.95-7.47-8.73-11.14-16.54-11.46-5.46-.23-10.24,1.88-14.15,5.76-9.8,9.75-9.16,26.82,1.27,35.85,8.1,7.01,21.79,5.46,27.15-1.29,1.83-2.31,3.17-4.81,3.75-8.02-.99,0-1.8,0-2.61,0-4.91,0-9.81-.04-14.72,.03-1.45,.02-2.1-.29-2.05-1.91,.11-3.82,.08-7.65,.01-11.48-.02-1.32,.47-1.7,1.75-1.7,11.14,.04,22.29,.02,33.43,.02,.85,0,1.64-.09,1.66,1.21,.11,6.91,.06,13.81-2.3,20.43-4.61,12.96-13.85,20.33-27.37,22.39-11.48,1.75-21.89-.81-30.6-8.6C-9.29,47.83-1.64,11.7,25.35,2.01c2.48-.89,5.14-1.29,7.71-1.92h1.48l5.05-.02Z"/><path class="e" d="M195.32,.08l.99,.02,5.04-.02h1.48c17.84,2.5,29.29,15.89,32.24,31.32,3.36,17.55-6.08,35.71-21.76,42.66-16.78,7.44-36.29,.89-45.82-15.53-11.17-19.25-4.18-44.27,15.06-54.48,4.01-2.13,8.29-3.36,12.76-3.96Zm-17.62,39.48c-.2,5.2,1.8,10.56,5.41,15.35,7.76,10.27,23.02,10.53,31.15,.56,8.33-10.21,7.97-24.96-.84-34.77-7.13-7.93-19.43-8.67-27.34-1.52-5.75,5.19-8.46,11.77-8.38,20.39Z"/><path class="d" d="M243.06,38.36c0-11.48,0-22.96,0-34.45,0-2.55-.13-2.29,2.28-2.29,15.39,0,30.79,0,46.18,0,2.33,0,2.21-.23,2.21,2.09,0,3.74-.08,7.49,.04,11.23,.05,1.57-.46,1.94-1.97,1.93-9.32-.06-18.64-.03-27.96-.03-.67,0-1.33-.01-2,0-2.03,.04-2.05,.04-2.06,2.07-.02,3.08-.01,6.16,0,9.24,0,2.03,.02,2.06,2.02,2.06,8.49,.01,16.97,0,25.46,0,.5,0,1,.04,1.5,0,1.04-.1,1.5,.25,1.49,1.38-.05,4.24-.07,8.49,.01,12.73,.03,1.46-.8,1.34-1.74,1.34-8.24,0-16.47,0-24.71,0-.67,0-1.33,0-2,0-2,.03-2.02,.04-2.03,2.08-.01,8.57,0,17.14,0,25.71,0,2.4,.13,2.11-2.17,2.11-4.08,0-8.15,.01-12.23,0-2.43,0-2.31,.31-2.31-2.25,0-11.65,0-23.3,0-34.95Z"/><path class="d" d="M305.25,38.61c0-11.56,0-23.13,0-34.69,0-2.29,.01-2.3,2.28-2.3,4.33,0,8.65,.03,12.98-.02,1.2-.02,1.64,.37,1.56,1.57-.09,1.33-.02,2.66-.02,3.99,0,21.63,0,43.26,0,64.89,0,.5,0,1,0,1.5-.03,2.02-.03,2.04-2.03,2.05-4.24,.02-8.48,.01-12.73,0-2.01,0-2.03-.03-2.03-2.05,0-11.65,0-23.29,0-34.94Z"/><g><path class="d" d="M336.69,17.08c0-4.38,0-8.75,0-13.13,0-2.55-.13-2.29,2.28-2.29,15.39,0,30.79,0,46.18,0,2.33,0,2.21-.23,2.21,2.09,0,3.74-.08,7.49,.04,11.23,.05,1.57-.46,1.94-1.97,1.93-9.32-.06-18.64-.03-27.96-.03-.67,0-1.33-.01-2,0-1.02,.02-1.53,.03-1.79,.29"/><path class="d" d="M353.68,17.16c-.26,.26-.27,.77-.27,1.78-.02,3.08-.01,6.16,0,9.24,0,2.03,.02,2.06,2.02,2.06,8.49,.01,16.97,0,25.46,0,.5,0,1,.04,1.5,0,1.04-.1,1.5,.25,1.49,1.38-.05,4.24-.07,8.49,.01,12.73,.03,1.46-.8,1.34-1.74,1.34-8.24,0-16.47,0-24.71,0-.67,0-1.33,0-2,0-2,.03-2.02,.04-2.03,2.08-.01,8.57,0,17.14,0,25.71,0,2.4,.13,2.11-2.17,2.11-4.08,0-8.15,.01-12.23,0-2.43,0-2.31,.31-2.31-2.25,0-11.65,0-23.3,0-34.95,0-7.11,0-14.21,0-21.32"/><g><path class="d" d="M336.69,74.73c0-4.38,0-8.75,0-13.13,0-2.55-.13-2.29,2.28-2.29,15.39,0,30.79,0,46.18,0,2.33,0,2.21-.23,2.21,2.09,0,3.74-.08,7.49,.04,11.23,.05,1.57-.46,1.94-1.97,1.93-9.32-.06-18.64-.03-27.96-.03-.67,0-1.33-.01-2,0-1.02,.02-1.53,.03-1.79,.29"/><rect class="d" x="336.69" y="59.3" width="50.71" height="16.25" rx=".48" ry=".48" transform="translate(724.08 134.85) rotate(180)"/></g></g><path class="d" d="M417.08,29.48c-.01-8.57,0-17.14,0-25.71,0-2.4,.13-2.11-2.17-2.11-4.08,0-8.15-.01-12.23,0-2.43,0-2.31-.31-2.31,2.25,0,11.65,0,23.3,0,34.95,0,11.48,0,22.96,0,34.45,0,2.55-.13,2.29,2.28,2.29,15.39,0,30.79,0,46.18,0,2.33,0,2.21,.23,2.21-2.09,0-3.74-.08-7.49,.04-11.23,.05-1.57-.46-1.94-1.97-1.93-9.32,.06-18.64,.03-27.96,.03-.67,0-1.33,.01-2,0-2.03-.04-2.05-.04-2.06-2.07-.02-3.08-.01-6.16,0-9.24"/><g><path class="d" d="M504.97,67.4c-5.15,5.55-11.35,7.79-18.22,7.82-8.35,.05-16.7,0-25.06,.08-1.28,.01-1.44-.52-1.44-1.8,.03-23.37,.03-46.74,0-70.1,0-1.31,.2-1.77,1.45-1.75,8.47,.11,16.95,.19,25.42,.12,16.33-.13,23.19,12.97,25.12,25.67,1.38,9.1,1.39,18.23-1.03,27.19-1.25,4.63-3.32,8.72-5.97,12.43l-.27,.34Zm-31.92-29.11c0,7.62,.03,15.24-.03,22.86,0,1.35,.26,1.8,1.48,1.76,3.87-.11,7.74,.02,11.61-.1,7.05-.21,10.99-3.53,12.63-11.23,1.76-8.31,1.85-16.77,.12-25.11-1.57-7.58-5.2-11.23-11.88-11.95-4.14-.45-8.33-.23-12.5-.42-1.23-.06-1.47,.43-1.46,1.76,.05,7.48,.03,14.96,.03,22.43Z"/><path class="d" d="M504.97,67.4l.27-.34c.13,.31,.26,.63,.38,.95,0,.01-.24,.17-.25,.15-.14-.25-.27-.51-.4-.76Z"/></g></g><g><path class="e" d="M205.16,100.85c4.13,.03,8.27,.06,12.4,.09-.01,1.96-.03,3.91-.04,5.87-3.6,.02-7.2,.03-10.81,.05-1.65,0-1.8,.14-1.8,1.78,0,7.08,0,14.15,0,21.23,0,1.63,.14,1.76,1.8,1.77,3.6,.02,7.2,.03,10.81,.05l.02,5.89c-5.82,.02-11.64,.03-17.46,.06-1.06,0-1.17-.62-1.17-1.45,.01-3.91,0-7.82,0-11.73,0-7.3,0-14.6,0-21.9,0-1.64,.06-1.69,1.68-1.7,1.52-.01,3.04,0,4.56-.01Z"/><path class="i" d="M217.54,137.57c0-1.96-.01-3.93-.02-5.89,3.62-.03,7.24-.03,10.86-.1,.43,0,.85-.31,1.28-.47,.04-.17,.11-.34,.11-.5,0-7.56,.01-15.11,0-22.67,0-.29-.22-.59-.33-.88-.55-.05-1.11-.13-1.66-.14-3.42-.05-6.83-.08-10.25-.11,.01-1.96,.03-3.91,.04-5.87,5-.01,10.01-.03,15.02-.04,.52,0,1.03-.05,1.55-.07l1.51,.05c.04,.47,.12,.95,.12,1.42,0,11.3,0,22.61,0,33.91,0,.48-.06,.95-.09,1.43l-3.1,.06c-4.4-.02-8.8-.04-13.21-.06-.6,0-1.21-.03-1.81-.05Z"/><path class="e" d="M217.22,109.45c7.24,.04,11.88,6.79,9.3,13.55-1.34,3.52-5.39,6.15-9.33,6.08,.01-6.54,.02-13.08,.03-19.62Z"/><path class="f" d="M217.22,109.45c-.01,6.54-.02,13.08-.03,19.62-5.14-.26-8.89-3.62-9.61-8.62-.66-4.55,2.21-9.08,6.82-10.62,.88-.3,1.88-.26,2.82-.38Z"/></g></g></g></svg>