<?xml version="1.0" encoding="UTF-8"?><svg xmlns="http://www.w3.org/2000/svg" viewBox="0 0 254.99 94.1"><defs><style>.d{fill:#2f3680;}.e{fill:#303781;}.f{fill:#2a337e;}.g{fill:#2e3680;}.h{fill:#2b337e;}.i{fill:#3ba8e0;}.j{fill:#3aa8e0;}.k{fill:#3ba9e0;}.l{fill:#303780;}</style></defs><g id="a"/><g id="b"><g id="c"><g><path class="f" d="M101.49,28.18h-36.53c1.74,6.02,4.96,9.85,10.79,10.86,6.57,1.14,11.28-1.61,14.17-7.64h10.91c-2.73,12.74-15.49,20.27-28.29,17.21-13.04-3.11-21.13-14.53-18.32-29.22C56.77,6.12,69.12-1.62,81.52,.29c14.31,2.19,20.82,11.41,19.98,27.9Zm-11.66-9.42c-.91-5.22-4.17-8.21-9.28-8.69-7.32-.69-11.85,1.96-14.54,8.69h23.81Z"/><path class="f" d="M36.84,30.14h-12.54v-8.96h23.51c.73,4.62,.31,9.04-1.08,13.31-2.78,8.55-10.86,14.26-19.95,14.63-11.33,.46-19.63-4.28-24.48-14.46C-4.62,20.14,5.03,4.6,18.49,.82c10.63-2.99,26.19,3.63,28.65,16.8-3.35,1-6.79,.19-10.39,.53-.4-.62-.86-1.26-1.25-1.95-4.7-8.23-15.74-8.09-21.36-.89-6.34,8.11-2.25,20.21,5.57,23.14,7.6,2.84,14.55-.17,17.14-8.3Z"/><path class="h" d="M106.82,24.43C106.19,11.33,117.51-.08,130.86,.1c13.07,.17,23.97,10.9,23.86,24.83-.12,15.62-13.36,24.36-24.37,24.32-10.56-.04-24.22-9.11-23.53-24.82Zm10.02,.19c-.34,4.31,1.23,7.85,3.9,11.01,4.17,4.93,11.14,5.97,16.6,2.64,7.74-4.72,9.13-15.14,4.81-22.29-5.43-9-16.91-9.22-22.73-.69-1.91,2.81-2.91,5.95-2.59,9.33Z"/><path class="i" d="M160.22,1.17h32.51c.58,3.1,.18,6.19,.25,9.68h-21.71v7.94c4.12,.65,8.41,.25,12.67,.27,7.52,.04,7.08-.56,7.03,6.98,0,.81,0,1.62,0,2.73-6.58,.74-13.03-.01-19.84,.47v18.56h-10.9V1.17Z"/><path class="j" d="M253.93,1.35V10.86h-13.67V47.76c-3.76,.62-7.18,.27-11.19,.28-.04-6.22-.01-12.31-.02-18.4,0-5.98,0-11.96,0-18.18-4.51-.98-8.99,.01-13.69-.63-.64-3-.15-6.1-.31-9.47h38.88Z"/><path class="k" d="M210.81,47.9h-10.54V1.32h10.54V47.9Z"/><path class="d" d="M105.72,76.09c1.73,8.71-3.88,16.51-13.44,17.79-7.83,1.04-16.67-2.65-19-13-2-8.9,3.02-17.05,12.06-19.48,7.49-2.02,16.84,1.01,19.59,9.95-2.03,1.17-3.31,.21-4.49-1.43-2.02-2.78-4.68-4.53-8.11-5.32-7.41-1.72-14.91,3.83-15.48,11.37-.7,9.4,6.01,16,16.77,14.01,4.57-.84,7.98-5.3,8.25-10.73h-11.58l-.28-3.16c5.27-.16,10.35-.09,15.72-.01Z"/><path class="g" d="M140.22,92.61c-2.35,1.42-3.8,.49-5.07-1.36-2.52-3.68-5.11-7.32-7.77-11.13h-6.11c-1,4.09,.04,8.41-.59,12.94l-3.57,.17v-31.55c2.58-.57,12.98-.96,15.15-.35,3.56,1,6.79,2.33,7.88,6.55,1.25,4.83-.85,9.46-5.53,11.14-.75,.27-1.59,.32-2.72,.53,1.94,5.04,5.98,8.47,8.32,13.06Zm-19.24-16.89c3.65,.84,7.45,.52,11.17,.21,2.75-.23,4.86-3.1,4.74-5.54-.12-2.57-2.14-5-5.08-5.26-3.55-.31-7.15-.07-10.83-.07v10.66Z"/><path class="g" d="M182.23,77.72c.79,7.26-6.07,16.21-16.42,16.29-10.14,.09-16.89-8.97-16.89-16.61,0-8.29,7.73-16.52,16.93-16.62,8.42-.09,17.42,8.34,16.39,16.93Zm-16.59,12.53c8.54,.26,13.16-6.52,13.25-13.07,.09-6.7-6.32-12.93-13.19-12.97-7.05-.04-12.57,5.82-12.85,13.11-.26,6.85,6.03,13.49,12.79,12.92Z"/><path class="e" d="M231.22,61.14c4.83,0,9.3-.26,13.73,.08,4.05,.3,7.51,1.7,9.34,6.08,1.91,4.57,.01,11.65-7,12.78-3.88,.62-7.83,.76-12.33,1.17v11.79h-3.75v-31.9Zm3.93,15.92c3.25,0,6.35,.05,9.44-.03,.95-.03,1.94-.29,2.83-.66,3.08-1.29,4.17-3.38,3.6-6.71-.4-2.35-2.48-4.48-5.07-4.62-3.56-.19-7.13-.05-10.8-.05v12.07Z"/><path class="l" d="M192.95,61.29c.98-.09,1.46-.18,1.94-.15,.3,.02,.59,.21,1.34,.49,0,4.43-.08,9.04,.03,13.65,.06,2.63,.3,5.28,.69,7.88,.66,4.41,3.32,6.78,7.58,7.04,5.9,.35,8.57-1.18,9.94-5.97,.45-1.56,.57-3.25,.59-4.89,.07-5.83,.03-11.65,.03-17.78l3.29-.51c.23,.63,.54,1.07,.54,1.51,.04,6,.1,11.99,.02,17.99-.15,10.23-8.45,16.01-18.11,12.56-5.09-1.82-7.62-5.81-7.81-11.02-.24-6.8-.06-13.61-.06-20.79Z"/></g></g></g></svg>