<?xml version="1.0" encoding="UTF-8"?><svg xmlns="http://www.w3.org/2000/svg" viewBox="0 0 513.17 196.29"><defs><style>.d{fill:#3ca8e0;}.e{fill:#2b327f;}.f{fill:#f3942f;}</style></defs><g id="a"/><g id="b"><g id="c"><g><path class="e" d="M99.42,44.6c.49,3.73,2.22,6.62,4.3,9.32,6.8,8.82,18.97,10.35,27.43,3.47,2.31-1.88,3.91-4.29,5-7.04,.33-.83,.62-1.4,1.69-1.39,5.31,.05,10.63,.02,16.18,.02-.1,.78-.11,1.41-.28,2-4.01,14.1-16.06,24.45-30.6,26.02-20.99,2.27-36.96-12.37-40.57-29.61-3.42-16.36,1.5-30.11,14.84-40.36,14.05-10.81,35.94-8.49,46.94,2.4,5.65,5.59,8.84,12.42,9.98,20.17,.6,4.09,.7,8.26,.89,12.4,.12,2.59,.01,2.6-2.51,2.6-14.56,0-29.11,0-43.67,0h-9.63Zm.78-15.09h2.95c9.97,0,19.94,0,29.91,0,.91,0,1.83-.04,2.74,0,1.31,.06,1.83-.28,1.37-1.73-1.72-5.41-5.02-9.26-10.48-11.15-3.3-1.14-6.69-1.23-10.08-.94-7.1,.6-14.41,6.64-16.41,13.81Z"/><path class="e" d="M39.59,.08h1.49c11.1,1.51,20.2,6.36,26.44,15.9,2.37,3.62,4.2,7.51,5.05,11.96-.67,.07-1.22,.18-1.77,.18-4.66,.01-9.31-.01-13.97,.02-1.08,0-1.79-.16-2.27-1.35-2.95-7.47-8.73-11.14-16.54-11.46-5.46-.23-10.24,1.88-14.15,5.76-9.8,9.75-9.16,26.82,1.27,35.85,8.1,7.01,21.79,5.46,27.15-1.29,1.83-2.31,3.17-4.81,3.75-8.02-.99,0-1.8,0-2.61,0-4.91,0-9.81-.04-14.72,.03-1.45,.02-2.1-.29-2.05-1.91,.11-3.82,.08-7.65,.01-11.48-.02-1.32,.47-1.7,1.75-1.7,11.14,.04,22.29,.02,33.43,.02,.85,0,1.64-.09,1.66,1.21,.11,6.91,.06,13.81-2.3,20.43-4.61,12.96-13.85,20.33-27.37,22.39-11.48,1.75-21.89-.81-30.6-8.6C-9.29,47.83-1.64,11.7,25.35,2.01c2.48-.89,5.14-1.29,7.71-1.92h1.48l5.05-.02Z"/><path class="e" d="M195.32,.08l.99,.02,5.04-.02h1.48c17.84,2.5,29.29,15.89,32.24,31.32,3.36,17.55-6.08,35.71-21.76,42.66-16.78,7.44-36.29,.89-45.82-15.53-11.17-19.25-4.18-44.27,15.06-54.48,4.01-2.13,8.29-3.36,12.76-3.96Zm-17.62,39.48c-.2,5.2,1.8,10.56,5.41,15.35,7.76,10.27,23.02,10.53,31.15,.56,8.33-10.21,7.97-24.96-.84-34.77-7.13-7.93-19.43-8.67-27.34-1.52-5.75,5.19-8.46,11.77-8.38,20.39Z"/><path class="d" d="M243.06,38.36c0-11.48,0-22.96,0-34.45,0-2.55-.13-2.29,2.28-2.29,15.39,0,30.79,0,46.18,0,2.33,0,2.21-.23,2.21,2.09,0,3.74-.08,7.49,.04,11.23,.05,1.57-.46,1.94-1.97,1.93-9.32-.06-18.64-.03-27.96-.03-.67,0-1.33-.01-2,0-2.03,.04-2.05,.04-2.06,2.07-.02,3.08-.01,6.16,0,9.24,0,2.03,.02,2.06,2.02,2.06,8.49,.01,16.97,0,25.46,0,.5,0,1,.04,1.5,0,1.04-.1,1.5,.25,1.49,1.38-.05,4.24-.07,8.49,.01,12.73,.03,1.46-.8,1.34-1.74,1.34-8.24,0-16.47,0-24.71,0-.67,0-1.33,0-2,0-2,.03-2.02,.04-2.03,2.08-.01,8.57,0,17.14,0,25.71,0,2.4,.13,2.11-2.17,2.11-4.08,0-8.15,.01-12.23,0-2.43,0-2.31,.31-2.31-2.25,0-11.65,0-23.3,0-34.95Z"/><path class="d" d="M305.25,38.61c0-11.56,0-23.13,0-34.69,0-2.29,.01-2.3,2.28-2.3,4.33,0,8.65,.03,12.98-.02,1.2-.02,1.64,.37,1.56,1.57-.09,1.33-.02,2.66-.02,3.99,0,21.63,0,43.26,0,64.89,0,.5,0,1,0,1.5-.03,2.02-.03,2.04-2.03,2.05-4.24,.02-8.48,.01-12.73,0-2.01,0-2.03-.03-2.03-2.05,0-11.65,0-23.29,0-34.94Z"/><g><path class="d" d="M336.69,17.08c0-4.38,0-8.75,0-13.13,0-2.55-.13-2.29,2.28-2.29,15.39,0,30.79,0,46.18,0,2.33,0,2.21-.23,2.21,2.09,0,3.74-.08,7.49,.04,11.23,.05,1.57-.46,1.94-1.97,1.93-9.32-.06-18.64-.03-27.96-.03-.67,0-1.33-.01-2,0-1.02,.02-1.53,.03-1.79,.29"/><path class="d" d="M353.68,17.16c-.26,.26-.27,.77-.27,1.78-.02,3.08-.01,6.16,0,9.24,0,2.03,.02,2.06,2.02,2.06,8.49,.01,16.97,0,25.46,0,.5,0,1,.04,1.5,0,1.04-.1,1.5,.25,1.49,1.38-.05,4.24-.07,8.49,.01,12.73,.03,1.46-.8,1.34-1.74,1.34-8.24,0-16.47,0-24.71,0-.67,0-1.33,0-2,0-2,.03-2.02,.04-2.03,2.08-.01,8.57,0,17.14,0,25.71,0,2.4,.13,2.11-2.17,2.11-4.08,0-8.15,.01-12.23,0-2.43,0-2.31,.31-2.31-2.25,0-11.65,0-23.3,0-34.95,0-7.11,0-14.21,0-21.32"/><g><path class="d" d="M336.69,74.73c0-4.38,0-8.75,0-13.13,0-2.55-.13-2.29,2.28-2.29,15.39,0,30.79,0,46.18,0,2.33,0,2.21-.23,2.21,2.09,0,3.74-.08,7.49,.04,11.23,.05,1.57-.46,1.94-1.97,1.93-9.32-.06-18.64-.03-27.96-.03-.67,0-1.33-.01-2,0-1.02,.02-1.53,.03-1.79,.29"/><rect class="d" x="336.69" y="59.3" width="50.71" height="16.25" rx=".48" ry=".48" transform="translate(724.08 134.85) rotate(180)"/></g></g><path class="d" d="M417.08,29.48c-.01-8.57,0-17.14,0-25.71,0-2.4,.13-2.11-2.17-2.11-4.08,0-8.15-.01-12.23,0-2.43,0-2.31-.31-2.31,2.25,0,11.65,0,23.3,0,34.95,0,11.48,0,22.96,0,34.45,0,2.55-.13,2.29,2.28,2.29,15.39,0,30.79,0,46.18,0,2.33,0,2.21,.23,2.21-2.09,0-3.74-.08-7.49,.04-11.23,.05-1.57-.46-1.94-1.97-1.93-9.32,.06-18.64,.03-27.96,.03-.67,0-1.33,.01-2,0-2.03-.04-2.05-.04-2.06-2.07-.02-3.08-.01-6.16,0-9.24"/><g><path class="d" d="M504.97,67.4c-5.15,5.55-11.35,7.79-18.22,7.82-8.35,.05-16.7,0-25.06,.08-1.28,.01-1.44-.52-1.44-1.8,.03-23.37,.03-46.74,0-70.1,0-1.31,.2-1.77,1.45-1.75,8.47,.11,16.95,.19,25.42,.12,16.33-.13,23.19,12.97,25.12,25.67,1.38,9.1,1.39,18.23-1.03,27.19-1.25,4.63-3.32,8.72-5.97,12.43l-.27,.34Zm-31.92-29.11c0,7.62,.03,15.24-.03,22.86,0,1.35,.26,1.8,1.48,1.76,3.87-.11,7.74,.02,11.61-.1,7.05-.21,10.99-3.53,12.63-11.23,1.76-8.31,1.85-16.77,.12-25.11-1.57-7.58-5.2-11.23-11.88-11.95-4.14-.45-8.33-.23-12.5-.42-1.23-.06-1.47,.43-1.46,1.76,.05,7.48,.03,14.96,.03,22.43Z"/><path class="d" d="M504.97,67.4l.27-.34c.13,.31,.26,.63,.38,.95,0,.01-.24,.17-.25,.15-.14-.25-.27-.51-.4-.76Z"/></g></g><g><path class="e" d="M298.59,141.97c1.31-.7,2.34-1.32,3.42-1.82,2.68-1.24,5.49-1.6,8.39-.95,1.48,.33,2.72,1.13,3.69,2.28,.68,.81,1.25,.91,2.16,.28,2.28-1.58,4.79-2.51,7.62-2.77,6.24-.56,10.35,2.8,10.66,8.85,.25,5,.26,10.02,.38,15.03,.01,.47,.02,.94,0,1.4-.03,.77,.36,1.01,1.09,1.07,2.51,.2,2.51,.23,2.49,2.75,0,.33-.02,.67,0,1,.03,.79-.39,1.07-1.12,1.04-.13,0-.27,0-.4,0-4.15,0-8.29,.01-12.44,0-1.53,0-1.54-.04-1.55-1.61-.01-1.36,.02-2.63,1.66-3.22,.76-.28,1.08-1.12,1.08-2.01-.02-4.75,.08-9.5-.06-14.24-.09-3.05-2.59-4.8-5.57-4.15-.19,.04-.38,.14-.57,.2-2.97,.89-3.1,1.16-3,4.17,.16,4.67,.22,9.35,.31,14.03,.03,1.68-.32,2.1,1.92,2.06,1.59-.02,1.67,.09,1.67,1.74-.01,3.53,.38,3.01-2.92,3.03-3.75,.03-7.49,.02-11.24,0-1.47,0-1.47-.05-1.49-1.44,0-.4,.05-.8,.02-1.2-.05-.82,.22-1.41,1.04-1.72,1.37-.52,1.85-1.57,1.87-2.99,.06-3.81,.25-7.61,.25-11.41,0-1.24-.3-2.53-.69-3.72-.76-2.3-2.55-3.22-4.87-2.66-.52,.12-1.03,.28-1.54,.44-.93,.29-1.45,.98-1.59,1.89-.19,1.25-.38,2.52-.4,3.78-.08,4.21-.1,8.43-.12,12.64,0,1.54,.02,1.54,1.54,1.61,.33,.01,.67,0,1,.01,.75,.01,1.01,.42,1.08,1.14,.37,3.56,.3,3.65-3.33,3.65-3.55,0-7.09,0-10.64,0-2.15,0-2.15,0-2.08-2.24,0-.13,.02-.27,0-.4-.09-.95,.34-1.51,1.26-1.75,1.45-.38,1.99-1.38,2.02-2.83,.09-5.21,.25-10.42,.34-15.63,.03-1.58-.03-1.61-1.72-1.61-2.51,0-2.32,.17-2.33-2.45,0-.33,.02-.67,0-1-.04-.74,.29-1.09,1.04-1.14,.66-.04,1.32-.26,1.98-.26,1.9,0,3.69-.46,5.47-1.1,.75-.27,1.54-.47,2.33-.54,1.24-.1,1.51,.18,1.7,1.39,.06,.39,.09,.78,.17,1.4Z"/><path class="e" d="M402.57,171.68c-.43-.36-.72-.61-1.02-.84-2.8-2.12-3.26-5.29-1.07-8.06,.65-.83,1.51-1.5,2.33-2.18,.99-.83,1.02-.86,.13-1.85-.18-.2-.35-.41-.57-.57-5.33-4.05-3.71-12.88,1.48-16.49,4.46-3.1,9.23-3.59,14.29-1.85,1.53,.53,1.53,.55,2.24-.83,.89-1.74,1.99-3.31,3.61-4.47,1.47-1.06,3.1-1.2,4.79-.92,1.6,.27,2.59,1.44,2.9,3.18,.28,1.56-.39,3.1-1.64,3.8-1.4,.78-3.03,.64-4.31-.39-.35-.28-.68-.6-1.07-.95-.3,.28-.58,.48-.78,.73-1.25,1.6-1.28,2.34-.03,3.9,1.02,1.28,1.59,2.69,1.99,4.3,1,4.1-.83,9.61-5.88,12.29-2.34,1.24-4.84,1.89-7.48,1.98-1.2,.04-2.41-.02-3.61-.01-.53,0-1.16-.09-1.57,.15-.59,.35-1.02,.97-1.51,1.48,.5,.38,.94,.99,1.5,1.11,1.82,.39,3.67,.68,5.52,.87,3.32,.35,6.65,.65,9.84,1.66,3.04,.96,5.26,2.74,6.02,6.08,.77,3.39-.27,6.07-2.79,8.23-2.71,2.33-5.99,3.48-9.45,4.09-3.3,.58-6.63,.69-9.96,.06-2.27-.42-4.31-1.26-6.24-2.55-3.21-2.15-2.77-8.4-.07-10.04,.83-.51,1.55-1.2,2.44-1.89Zm14.7-20.67c.16-1.86-.33-3.59-1.15-5.21-1.58-3.12-4.39-3.52-6.76-.97-.49,.52-.95,1.16-1.15,1.83-.99,3.2-.77,6.32,.97,9.23,1.8,3,5.29,2.94,7.04-.09,.86-1.48,1.19-3.09,1.05-4.79Zm-3.82,31.06l.05-.36c.87,0,1.74,.07,2.6-.01,1.84-.18,3.49-.84,4.79-2.2,1.54-1.61,1.31-3.32-.59-4.46-.45-.27-.96-.47-1.47-.59-.9-.22-1.81-.43-2.73-.52-2.51-.24-5.03-.48-7.55-.58-1.64-.07-2.11,.37-2.66,1.87-.94,2.56-.18,4.75,2.36,5.75,1.63,.64,3.46,.76,5.2,1.11Z"/><path class="e" d="M463.57,141.82c1.21-.59,2.37-1.22,3.59-1.73,2.63-1.11,5.32-1.69,8.19-.93,3.37,.89,6.26,4.09,6.58,7.56,.21,2.33,.33,4.66,.37,7,.06,3.34,0,6.69,.03,10.04,0,1.52,.04,1.52,1.58,1.57,.27,0,.54,0,.8,0,1.48,.06,1.58,.12,1.57,1.65,0,3.71,.39,3.11-3.02,3.14-3.81,.03-7.63,.02-11.44,0-1.56,0-1.57-.04-1.6-1.56,0-.4,0-.8,.01-1.2,0-.65,.15-1.1,.9-1.34,1.82-.59,2.53-1.87,2.41-3.84-.16-2.53-.02-5.08-.08-7.63-.04-1.8-.2-3.6-.33-5.4-.23-3.11-2.68-4.93-5.71-4.25-.45,.1-.9,.26-1.34,.43-2.5,.98-2.72,1.29-2.72,3.95,0,4.75,0,9.5,0,14.25,0,1.73,.03,1.73,1.8,1.78,.33,0,.67,.01,1,.01,.56,0,.88,.24,.89,.83,0,.07,0,.13,.01,.2q.38,3.76-3.39,3.76c-3.68,0-7.36,.01-11.04,0-1.63,0-1.63-.03-1.65-1.69,0-.33,.01-.67,0-1,0-.66,.19-1.13,.9-1.36,.56-.18,1.06-.55,1.57-.85,.82-.48,1.14-1.18,1.14-2.16-.01-5.29,.04-10.57,.05-15.86,0-1.49-.03-1.52-1.62-1.53-2.65-.01-2.43,.24-2.44-2.53,0-.4-.08-.83,.04-1.2,.1-.31,.4-.71,.68-.78,.77-.2,1.58-.22,2.37-.37,1.76-.33,3.52-.68,5.27-1.04,.39-.08,.76-.24,1.15-.35,2.21-.62,2.61-.37,3.1,1.83,.04,.18,.19,.33,.36,.59Z"/><path class="e" d="M356.61,165.24c3.19,.06,5.73-1.02,7.95-3.08,1.46-1.36,1.52-1.3,2.91,.1,.24,.24,.46,.49,.71,.71,.59,.51,.47,.94,.02,1.52-2.57,3.31-5.94,5.3-9.98,6.24-4.38,1.01-8.46,.26-12.3-2.03-2.16-1.29-3.65-3.16-4.63-5.39-2.5-5.7-2.55-11.43,.52-16.93,2.19-3.92,5.61-6.32,10.06-7.26,2.43-.52,4.79-.38,7.12,.28,5.8,1.64,8.52,5.55,9.3,11.48,.07,.53,.05,1.07,.12,1.6,.18,1.48,.19,1.49-1.37,1.52-1.34,.03-2.67,0-4.01,.03-4.34,.12-8.68,.26-13.01,.41-1.33,.05-1.61,.25-1.34,1.56,.4,1.95,.81,3.96,1.67,5.73,1.25,2.56,3.54,3.72,6.28,3.51Zm-7.56-15.36c.67,.04,1.26,.1,1.84,.1,2.01,.01,4.01,.02,6.02,0,3.33-.03,3.37,.52,2.34-3.1-.99-3.53-4.81-4.56-7.63-2.17-1.56,1.32-2.3,3.04-2.57,5.17Z"/><path class="e" d="M383.15,143.69c1.97-1.48,3.58-2.89,5.39-3.97,1.84-1.1,3.89-1.32,5.94-.31,1.9,.94,2.88,2.68,2.73,4.92-.12,1.8-1.23,3.16-3.08,3.78-1.75,.59-3.44-.03-4.72-1.72-1.14-1.51-1.57-1.62-2.91-.25-1.11,1.14-2.04,2.46-2.96,3.77-.28,.4-.36,1-.37,1.51-.03,4.14-.03,8.29,0,12.43,0,1.41,.05,1.48,1.47,1.45,2.45-.05,2.18,.2,2.19,2.2,0,.13,0,.27,0,.4,0,2.21,0,2.21-2.15,2.21-4.14,0-8.29,.01-12.43,0-1.44,0-1.45-.05-1.48-1.46-.01-.6-.08-1.24,.09-1.79,.14-.44,.59-1.08,.93-1.1,2.04-.11,2.27-1.62,2.47-3.08,.22-1.58,.35-3.19,.37-4.79,.06-3.54,.05-7.09,.03-10.63,0-1.48-.11-1.6-1.62-1.6-2.91,0-2.66,.35-2.66-2.93,0-1.48,.03-1.49,1.51-1.76,.52-.1,1.06-.1,1.59-.19,1.76-.33,3.52-.66,5.28-1.02,.65-.14,1.27-.45,1.92-.56,2.11-.35,2.43-.07,2.48,2.09,.02,.78,0,1.57,0,2.39Z"/><path class="e" d="M440.56,170.12c-2.27,0-4.54-.02-6.81,0-.82,0-1.27-.24-1.21-1.14,.03-.47,.03-.94,0-1.4-.08-1.05,.13-1.8,1.37-2.01,.93-.16,1.45-.89,1.59-1.84,.07-.46,.2-.92,.22-1.38,.15-4.94,.29-9.87,.4-14.81,.04-1.83-.03-1.87-1.93-1.89-2.58-.02-2.49,.33-2.4-2.51,.06-1.8,.08-1.79,1.86-2.08,2.62-.43,5.33-.48,7.73-1.84,.11-.06,.26-.05,.39-.07,2.9-.45,3.21-.2,3.18,2.72-.09,6.94-.21,13.89-.32,20.83,0,.53,.01,1.07,0,1.6-.02,.66,.27,1,.94,.99,.13,0,.27,0,.4,.01,.84,.1,1.68,.21,2.51,.32,.02,1.33,.09,2.66,.01,3.98-.01,.19-.73,.47-1.12,.48-2.27,.05-4.54,.02-6.81,.02Z"/><g><path class="f" d="M505.62,106.94c0,5.4,0,10.48,0,15.56,0,1.26-.59,2.14-1.65,2.78-2.47,1.47-4.9,2.99-7.38,4.43-2.07,1.2-4.2,2.33-6.6,3.65-.14-.86-.33-1.48-.32-2.09,.08-4.82,.22-9.63,.29-14.45,.01-.92,.57-1.27,1.22-1.64,3.59-2.06,7.17-4.13,10.76-6.19,1.15-.66,2.32-1.29,3.68-2.05Z"/><path class="f" d="M505.13,105.28c-3.32,1.91-6.13,3.54-8.96,5.14-2.08,1.18-4.2,2.31-6.27,3.52-.7,.41-1.28,.53-2.02,.06-4.22-2.67-8.48-5.29-12.71-7.93-.17-.1-.29-.27-.55-.51,.34-.3,.62-.65,.98-.86,4.29-2.42,8.59-4.82,12.88-7.23,.73-.41,1.41-.57,2.24-.11,4.65,2.59,9.32,5.13,14.41,7.93Z"/><path class="f" d="M487.82,133.03c-.07,0-.14,.03-.2,0-4.75-2.16-9.19-4.85-13.36-7.98-.76-.57-1.08-1.39-1.08-2.28,0-5.02,.02-10.03,.05-15.05,0-.17,.13-.35,.26-.7,.94,.61,1.81,1.2,2.7,1.75,3.46,2.14,6.91,4.31,10.4,6.39,.84,.5,1.33,1.07,1.33,2.04,.02,5.15,.03,10.3,.04,15.45,0,.12-.1,.24-.15,.37Z"/></g><path class="e" d="M445.48,128.97c-.02,3.4-2.31,5.42-5.45,4.98-.26-.04-.53-.08-.77-.17-1.62-.63-3.08-2.86-2.96-4.85,.12-1.95,.88-3.63,2.81-4.49,2.8-1.25,6.01,.65,6.33,3.71,.03,.33,.03,.66,.04,.82Z"/></g><g><path class="d" d="M220.7,140.29c2.03-.91,3.57-1.33,4.97-1.33,8.54,0,14.21,6.93,14.21,14.77,0,9.94-8.19,17.99-18.41,17.99-4.06,0-7.63-.7-12.46-2.52,.07-1.68,.07-3.64,.07-5.39v-32.41c0-3.99-.42-4.55-4.34-4.83v-2.38c3.64-.35,9.52-1.33,13.37-2.38v19.67l2.59-1.19Zm-2.59,22.89c0,.98,.21,1.82,.42,2.38,.42,1.05,2.38,3.22,4.97,3.22,3.71,0,6.44-4.13,6.44-12.74s-4.41-12.46-8.61-12.46c-1.47,0-2.17,.21-3.22,.49v19.11Z"/><path class="d" d="M276.56,142.18c-3.36,.49-4.06,1.19-5.81,4.97-1.75,3.64-3.71,8.89-7.77,18.62-4.76,11.34-6.09,15.96-7.42,19.95-.49,1.54-1.33,2.03-2.52,2.03-2.73,0-5.53-2.03-5.53-4.48,0-1.12,.42-1.68,1.89-2.59,2.73-1.54,4.62-2.87,5.88-5.04,.7-1.19,1.47-3.08,1.75-3.92,.28-.98,.14-1.61-.28-2.66-3.64-10.08-8.12-19.67-9.38-22.61-1.26-2.94-2.1-3.78-5.46-4.27v-2.38h17.5v2.38c-3.01,.49-3.5,.98-2.73,3.15l5.46,14.77c1.54-3.85,4.06-10.29,5.32-14.21,.7-2.24-.21-3.15-3.71-3.71v-2.38h12.81v2.38Z"/></g></g></g></svg>